<svg version="1.2" xmlns="http://www.w3.org/2000/svg" viewBox="0 0 537 117" width="537" height="117" class="iam-thiago-svg" style="background: #eee;">
	<title>Eu sou o Thiago</title>
	<style>
		.s0 { fill: #1b1b1b;stroke: #1b1b1b;stroke-linecap: round;stroke-width: .4 } 
		.s1 { fill: none;stroke: #000000;stroke-miterlimit:100;stroke-width: 2 } 
		.s2 { fill: none;stroke: #1b1b1b;stroke-miterlimit:100 }

    svg .svg-elem-1 {
      stroke-dashoffset: 382.9895935058594px;
      stroke-dasharray: 382.9895935058594px;
      fill: transparent;
      -webkit-transition: stroke-dashoffset 1s cubic-bezier(0.47, 0, 0.745, 0.715) 0s,
                            fill 0.7s cubic-bezier(0.47, 0, 0.745, 0.715) 0.8s;
              transition: stroke-dashoffset 1s cubic-bezier(0.47, 0, 0.745, 0.715) 0s,
                    fill 0.7s cubic-bezier(0.47, 0, 0.745, 0.715) 0.8s;
    }

    svg.active .svg-elem-1 {
      stroke-dashoffset: 0;
      fill: rgb(27, 27, 27);
    }

    svg .svg-elem-2 {
      stroke-dashoffset: 295.6802062988281px;
      stroke-dasharray: 295.6802062988281px;
      fill: transparent;
      -webkit-transition: stroke-dashoffset 1s cubic-bezier(0.47, 0, 0.745, 0.715) 0.12s,
                            fill 0.7s cubic-bezier(0.47, 0, 0.745, 0.715) 0.9s;
              transition: stroke-dashoffset 1s cubic-bezier(0.47, 0, 0.745, 0.715) 0.12s,
                    fill 0.7s cubic-bezier(0.47, 0, 0.745, 0.715) 0.9s;
    }

    svg.active .svg-elem-2 {
      stroke-dashoffset: 0;
      fill: rgb(27, 27, 27);
    }

    svg .svg-elem-3 {
      stroke-dashoffset: 268.26824951171875px;
      stroke-dasharray: 268.26824951171875px;
      fill: transparent;
      -webkit-transition: stroke-dashoffset 1s cubic-bezier(0.47, 0, 0.745, 0.715) 0.24s,
                            fill 0.7s cubic-bezier(0.47, 0, 0.745, 0.715) 1s;
              transition: stroke-dashoffset 1s cubic-bezier(0.47, 0, 0.745, 0.715) 0.24s,
                    fill 0.7s cubic-bezier(0.47, 0, 0.745, 0.715) 1s;
    }

    svg.active .svg-elem-3 {
      stroke-dashoffset: 0;
      fill: rgb(27, 27, 27);
    }

    svg .svg-elem-4 {
      stroke-dashoffset: 295.7008972167969px;
      stroke-dasharray: 295.7008972167969px;
      fill: transparent;
      -webkit-transition: stroke-dashoffset 1s cubic-bezier(0.47, 0, 0.745, 0.715) 0.36s,
                            fill 0.7s cubic-bezier(0.47, 0, 0.745, 0.715) 1.1s;
              transition: stroke-dashoffset 1s cubic-bezier(0.47, 0, 0.745, 0.715) 0.36s,
                    fill 0.7s cubic-bezier(0.47, 0, 0.745, 0.715) 1.1s;
    }

    svg.active .svg-elem-4 {
      stroke-dashoffset: 0;
      fill: rgb(27, 27, 27);
    }

    svg .svg-elem-5 {
      stroke-dashoffset: 242.90005493164062px;
      stroke-dasharray: 242.90005493164062px;
      fill: transparent;
      -webkit-transition: stroke-dashoffset 1s cubic-bezier(0.47, 0, 0.745, 0.715) 0.48s,
                            fill 0.7s cubic-bezier(0.47, 0, 0.745, 0.715) 1.2000000000000002s;
              transition: stroke-dashoffset 1s cubic-bezier(0.47, 0, 0.745, 0.715) 0.48s,
                    fill 0.7s cubic-bezier(0.47, 0, 0.745, 0.715) 1.2000000000000002s;
    }

    svg.active .svg-elem-5 {
      stroke-dashoffset: 0;
      fill: rgb(27, 27, 27);
    }

    svg .svg-elem-6 {
      stroke-dashoffset: 315.8066101074219px;
      stroke-dasharray: 315.8066101074219px;
      fill: transparent;
      -webkit-transition: stroke-dashoffset 1s cubic-bezier(0.47, 0, 0.745, 0.715) 0.6s,
                            fill 0.7s cubic-bezier(0.47, 0, 0.745, 0.715) 1.3s;
              transition: stroke-dashoffset 1s cubic-bezier(0.47, 0, 0.745, 0.715) 0.6s,
                    fill 0.7s cubic-bezier(0.47, 0, 0.745, 0.715) 1.3s;
    }

    svg.active .svg-elem-6 {
      stroke-dashoffset: 0;
      fill: rgb(27, 27, 27);
    }

    svg .svg-elem-7 {
      stroke-dashoffset: 125.18111419677734px;
      stroke-dasharray: 125.18111419677734px;
      fill: transparent;
      -webkit-transition: stroke-dashoffset 1s cubic-bezier(0.47, 0, 0.745, 0.715) 0.72s,
                            fill 0.7s cubic-bezier(0.47, 0, 0.745, 0.715) 1.4000000000000001s;
              transition: stroke-dashoffset 1s cubic-bezier(0.47, 0, 0.745, 0.715) 0.72s,
                    fill 0.7s cubic-bezier(0.47, 0, 0.745, 0.715) 1.4000000000000001s;
    }

    svg.active .svg-elem-7 {
      stroke-dashoffset: 0;
      fill: rgb(27, 27, 27);
    }

    svg .svg-elem-8 {
      stroke-dashoffset: 346.1027526855469px;
      stroke-dasharray: 346.1027526855469px;
      fill: transparent;
      -webkit-transition: stroke-dashoffset 1s cubic-bezier(0.47, 0, 0.745, 0.715) 0.84s,
                            fill 0.7s cubic-bezier(0.47, 0, 0.745, 0.715) 1.5s;
              transition: stroke-dashoffset 1s cubic-bezier(0.47, 0, 0.745, 0.715) 0.84s,
                    fill 0.7s cubic-bezier(0.47, 0, 0.745, 0.715) 1.5s;
    }

    svg.active .svg-elem-8 {
      stroke-dashoffset: 0;
      fill: rgb(27, 27, 27);
    }

    svg .svg-elem-9 {
      stroke-dashoffset: 420.0750732421875px;
      stroke-dasharray: 420.0750732421875px;
      fill: transparent;
      -webkit-transition: stroke-dashoffset 1s cubic-bezier(0.47, 0, 0.745, 0.715) 0.96s,
                            fill 0.7s cubic-bezier(0.47, 0, 0.745, 0.715) 1.6s;
              transition: stroke-dashoffset 1s cubic-bezier(0.47, 0, 0.745, 0.715) 0.96s,
                    fill 0.7s cubic-bezier(0.47, 0, 0.745, 0.715) 1.6s;
    }

    svg.active .svg-elem-9 {
      stroke-dashoffset: 0;
      fill: rgb(27, 27, 27);
    }

    svg .svg-elem-10 {
      stroke-dashoffset: 295.6897277832031px;
      stroke-dasharray: 295.6897277832031px;
      fill: transparent;
      -webkit-transition: stroke-dashoffset 1s cubic-bezier(0.47, 0, 0.745, 0.715) 1.08s,
                            fill 0.7s cubic-bezier(0.47, 0, 0.745, 0.715) 1.7000000000000002s;
              transition: stroke-dashoffset 1s cubic-bezier(0.47, 0, 0.745, 0.715) 1.08s,
                    fill 0.7s cubic-bezier(0.47, 0, 0.745, 0.715) 1.7000000000000002s;
    }

    svg.active .svg-elem-10 {
      stroke-dashoffset: 0;
      fill: rgb(27, 27, 27);
    }

    svg .svg-elem-11 {
      stroke-dashoffset: 23.937347412109375px;
      stroke-dasharray: 23.937347412109375px;
      -webkit-transition: stroke-dashoffset 1s cubic-bezier(0.47, 0, 0.745, 0.715) 1.2s,
                            fill 0.7s cubic-bezier(0.47, 0, 0.745, 0.715) 1.8s;
              transition: stroke-dashoffset 1s cubic-bezier(0.47, 0, 0.745, 0.715) 1.2s,
                    fill 0.7s cubic-bezier(0.47, 0, 0.745, 0.715) 1.8s;
    }

    svg.active .svg-elem-11 {
      stroke-dashoffset: 0;
    }

    svg .svg-elem-12 {
      stroke-dashoffset: 145.42697143554688px;
      stroke-dasharray: 145.42697143554688px;
      -webkit-transition: stroke-dashoffset 1s cubic-bezier(0.47, 0, 0.745, 0.715) 1.3199999999999998s,
                            fill 0.7s cubic-bezier(0.47, 0, 0.745, 0.715) 1.9000000000000001s;
              transition: stroke-dashoffset 1s cubic-bezier(0.47, 0, 0.745, 0.715) 1.3199999999999998s,
                    fill 0.7s cubic-bezier(0.47, 0, 0.745, 0.715) 1.9000000000000001s;
    }

    svg.active .svg-elem-12 {
      stroke-dashoffset: 0;
    }
	</style>
	<path id="S" fill-rule="evenodd" class="s0 svg-elem-1" d="m47.6 47h-2.6q0.1-0.9 0-1.8-0.1-1-0.3-1.8-0.2-0.9-0.5-1.8-0.2-0.9-0.6-1.7-0.4-0.8-0.8-1.6-0.5-0.7-1-1.4-0.5-0.7-1.1-1.3-0.6-0.7-1.3-1.3-1-0.8-2.1-1.6-1.1-0.7-2.3-1.3-1.2-0.6-2.5-1-1.3-0.4-2.6-0.6-0.6-0.1-1.3-0.2-0.6-0.1-1.2-0.2-0.7 0-1.3 0-0.6-0.1-1.3-0.1-0.7 0-1.5 0.1-0.7 0-1.5 0.1-0.7 0-1.5 0.1-0.7 0.1-1.5 0.3-5 0.9-8.5 3.5-0.5 0.3-0.9 0.6-0.4 0.4-0.8 0.7-0.4 0.4-0.8 0.8-0.3 0.4-0.7 0.8-0.6 0.8-1 1.6-0.5 0.9-0.8 1.8-0.3 0.9-0.4 1.8-0.2 1-0.2 1.9 0 0.7 0.1 1.3 0.1 0.7 0.2 1.4 0.1 0.6 0.3 1.3 0.2 0.6 0.5 1.2 1.2 2.7 3.8 4.7 0.4 0.3 0.8 0.6 0.4 0.3 0.9 0.6 0.4 0.3 0.9 0.5 0.4 0.3 0.9 0.5 3.8 2 9.6 3.7 0.4 0.1 0.7 0.2 0.4 0.1 0.7 0.2 0.4 0.1 0.7 0.1 0.4 0.1 0.7 0.2 9.8 2.6 14.9 5.8 0.2 0.1 0.4 0.2 0.1 0.1 0.3 0.2 0.2 0.2 0.3 0.3 0.2 0.1 0.4 0.2 6.3 4.7 6.5 12.4 0 0.1 0 0.1 0 0.1 0 0.2 0 0 0 0.1 0 0.1 0 0.1 0 1.3-0.1 2.5-0.2 1.2-0.6 2.3-0.3 1.2-0.9 2.3-0.6 1.1-1.3 2.1-0.5 0.6-1.1 1.3-0.5 0.6-1.2 1.2-0.6 0.5-1.3 1-0.7 0.5-1.4 1-0.4 0.2-0.8 0.4-0.4 0.2-0.8 0.4-0.4 0.2-0.8 0.4-0.4 0.2-0.8 0.4-0.9 0.3-1.9 0.6-0.9 0.3-1.9 0.6-0.9 0.2-1.9 0.4-0.9 0.2-1.9 0.3-0.6 0-1.1 0.1-0.6 0-1.1 0.1-0.6 0-1.1 0-0.6 0-1.1 0-1 0-1.9 0-0.9 0-1.9-0.1-0.9-0.1-1.8-0.2-1-0.2-1.9-0.4-0.7-0.1-1.5-0.3-0.7-0.2-1.5-0.4-0.7-0.2-1.4-0.5-0.7-0.2-1.4-0.5-5.9-2.5-8.9-7-3-4.6-3-10.8h2.5q0 0.8 0.1 1.5 0 0.8 0.1 1.5 0.2 0.7 0.3 1.5 0.2 0.7 0.5 1.4 0.3 1.1 0.9 2.1 0.5 1 1.2 1.9 0.7 0.9 1.5 1.7 0.8 0.8 1.7 1.5 5.8 4.3 15 4.6 0.1 0 0.3 0 0.2 0 0.4 0 0.1 0 0.3 0 0.2 0 0.4 0 8.9 0 14.7-4.1 0.5-0.3 1-0.7 0.5-0.4 0.9-0.8 0.5-0.4 0.9-0.9 0.4-0.5 0.7-0.9 0.6-0.8 1-1.7 0.5-0.9 0.8-1.8 0.3-0.9 0.4-1.9 0.2-1 0.2-2 0-0.4-0.1-0.8 0-0.5 0-0.9-0.1-0.5-0.2-0.9 0-0.4-0.1-0.9-0.1-0.5-0.3-1-0.2-0.5-0.4-1-0.2-0.5-0.4-0.9-0.3-0.5-0.6-0.9-1.7-2.6-5.1-4.7-0.2-0.1-0.4-0.2-0.1 0-0.3-0.1-0.1-0.1-0.3-0.2-0.1-0.1-0.3-0.2-3.7-1.9-10.5-3.9-0.3-0.1-0.7-0.2-0.3-0.2-0.7-0.3-0.3-0.1-0.7-0.1-0.3-0.1-0.7-0.2-0.6-0.2-1.2-0.4-0.6-0.2-1.2-0.3-0.6-0.2-1.2-0.4-0.6-0.2-1.2-0.4-4.6-1.5-7.5-3-0.1 0-0.2-0.1-0.2 0-0.3-0.1-0.1-0.1-0.2-0.1-0.1-0.1-0.2-0.2-0.4-0.2-0.8-0.4-0.4-0.3-0.8-0.5-0.4-0.3-0.8-0.6-0.4-0.2-0.7-0.5-2.2-1.7-3.4-3.7-2.1-3.3-2.1-8 0-1.5 0.3-3 0.3-1.5 0.9-2.9 0.6-1.4 1.5-2.6 0.9-1.3 2-2.3 0.2-0.2 0.4-0.3 0.2-0.2 0.4-0.4 0.2-0.1 0.4-0.3 0.2-0.1 0.4-0.3 0.9-0.6 1.8-1.2 1-0.5 2-1 1-0.5 2.1-0.8 1-0.4 2.1-0.6 3.8-1 8.3-1 0.9 0 1.8 0.1 0.9 0 1.7 0.1 0.9 0.1 1.8 0.3 0.8 0.1 1.7 0.3 0.6 0.2 1.2 0.4 0.6 0.1 1.2 0.4 0.7 0.2 1.3 0.4 0.5 0.3 1.1 0.6 0.8 0.3 1.6 0.8 0.7 0.4 1.5 1 0.7 0.5 1.3 1 0.7 0.6 1.3 1.3 0.4 0.3 0.7 0.7 0.3 0.3 0.6 0.7 0.3 0.4 0.6 0.8 0.3 0.4 0.5 0.8 0.7 1.1 1.2 2.3 0.5 1.1 0.9 2.4 0.3 1.2 0.5 2.4 0.2 1.3 0.3 2.6 0 0.1 0 0.2 0 0.1 0 0.2 0 0.1 0 0.2 0 0.1 0 0.2z"></path>
	<path id="O" fill-rule="evenodd" class="s0 svg-elem-2" d="m56.5 71.9v-2.2q0-1 0-2 0.1-0.9 0.2-1.9 0.1-0.9 0.3-1.9 0.1-0.9 0.3-1.8 0.2-0.8 0.4-1.4 0.2-0.7 0.5-1.4 0.2-0.7 0.5-1.4 0.3-0.6 0.6-1.3 2.8-5.8 7.8-9 1.2-0.8 2.5-1.4 1.3-0.6 2.7-1 1.3-0.4 2.7-0.6 1.4-0.2 2.9-0.2 0.1 0 0.2 0 0.1-0.1 0.2-0.1 0.1 0 0.2 0 0.1 0 0.2 0 0.9 0 1.9 0.1 1 0.1 1.9 0.3 1 0.1 1.9 0.4 1 0.2 1.9 0.5 0.5 0.2 1 0.4 0.5 0.2 0.9 0.5 0.5 0.2 1 0.4 0.4 0.3 0.9 0.6 1.1 0.7 2.2 1.6 1 0.8 2 1.8 0.9 1 1.7 2.1 0.8 1.1 1.4 2.3 0.1 0.1 0.2 0.3 0 0.1 0.1 0.2 0.1 0.2 0.2 0.3 0 0.2 0.1 0.3 0.5 1.1 1 2.3 0.4 1.1 0.8 2.3 0.3 1.2 0.5 2.4 0.3 1.2 0.4 2.4 0 0.5 0.1 0.9 0 0.5 0 0.9 0 0.5 0.1 0.9 0 0.4 0 0.9v2.2q0 7.3-2.8 13.1-0.4 1-1 1.9-0.5 0.9-1.1 1.7-0.6 0.8-1.3 1.6-0.7 0.8-1.5 1.5-0.3 0.4-0.7 0.7-0.3 0.3-0.7 0.5-0.4 0.3-0.8 0.6-0.3 0.3-0.7 0.5-1.2 0.8-2.5 1.3-1.3 0.6-2.7 1-1.3 0.5-2.7 0.7-1.4 0.2-2.9 0.2-0.1 0-0.2 0-0.1 0-0.2 0-0.1 0-0.2 0-0.1 0-0.1 0-1 0-2 0-1-0.1-1.9-0.3-1-0.1-2-0.4-0.9-0.2-1.8-0.6-0.5-0.2-1-0.4-0.5-0.2-1-0.4-0.5-0.2-0.9-0.5-0.5-0.3-1-0.6-1.2-0.7-2.2-1.6-1.1-0.9-2.1-2-0.9-1-1.7-2.2-0.8-1.1-1.5-2.4 0-0.1-0.1-0.1 0-0.1-0.1-0.2 0-0.1-0.1-0.2 0-0.1-0.1-0.2-0.5-1.1-0.9-2.2-0.5-1.2-0.8-2.4-0.3-1.2-0.6-2.4-0.2-1.2-0.3-2.4-0.1-0.4-0.1-0.9 0-0.4-0.1-0.8 0-0.5 0-0.9 0-0.5 0-0.9zm2.5-1.8v1.5q0 1.1 0.1 2.1 0 1 0.2 2 0.1 1 0.4 2 0.2 1.1 0.5 2 0.1 0.5 0.3 0.9 0.1 0.5 0.3 0.9 0.2 0.4 0.3 0.9 0.2 0.4 0.4 0.8 0.4 0.8 0.8 1.5 0.4 0.7 0.8 1.4 0.5 0.7 1 1.3 0.5 0.7 1.1 1.3 0.4 0.4 0.8 0.7 0.4 0.4 0.8 0.8 0.4 0.3 0.8 0.6 0.5 0.4 0.9 0.7 4.5 2.9 10.3 2.9 0.9 0 1.9-0.1 0.9-0.1 1.8-0.2 1-0.2 1.9-0.5 0.9-0.3 1.8-0.6 0.9-0.4 1.9-1 0.9-0.5 1.7-1.2 0.9-0.6 1.6-1.3 0.8-0.8 1.5-1.6 0.9-1.1 1.7-2.3 0.7-1.3 1.4-2.6 0.6-1.3 1-2.6 0.5-1.4 0.7-2.8 0.2-0.8 0.3-1.6 0.1-0.8 0.2-1.6 0.1-0.8 0.1-1.7 0-0.8 0-1.6v-1.4q0-6.3-2.5-11.6-0.3-0.7-0.7-1.4-0.4-0.8-0.9-1.4-0.5-0.7-1-1.4-0.5-0.6-1-1.2-0.4-0.4-0.8-0.8-0.4-0.4-0.8-0.7-0.5-0.4-0.9-0.7-0.4-0.3-0.9-0.6-1.1-0.8-2.3-1.3-1.2-0.6-2.5-1-1.2-0.4-2.5-0.5-1.3-0.2-2.7-0.2 0 0 0 0 0 0-0.1 0 0 0 0 0 0 0 0 0-1 0-2 0.1-1 0-2 0.2-0.9 0.2-1.9 0.5-0.9 0.3-1.8 0.7-0.9 0.5-1.8 1-0.9 0.5-1.7 1.2-0.9 0.6-1.6 1.3-0.7 0.8-1.4 1.6-1 1.2-1.8 2.6-0.9 1.3-1.5 2.7-0.7 1.5-1.1 3-0.4 1.5-0.7 3.1-0.1 0.6-0.2 1.3 0 0.6-0.1 1.3 0 0.7-0.1 1.3 0 0.7 0 1.3z"></path>
	<path id="U" fill-rule="evenodd" class="s0 svg-elem-3" d="m149.7 96h-2.6v-8.2q-0.5 1-1.2 2-0.7 1-1.6 1.8-0.8 0.9-1.7 1.6-1 0.7-2 1.3-3.8 2.1-9.3 2.4-0.2 0-0.4 0-0.2 0-0.4 0-0.2 0-0.4 0-0.2 0-0.4 0-6.2 0-10.1-2.7-0.4-0.2-0.7-0.5-0.3-0.2-0.6-0.5-0.3-0.2-0.6-0.5-0.2-0.3-0.5-0.6-0.5-0.6-0.9-1.2-0.4-0.7-0.8-1.3-0.4-0.7-0.7-1.4-0.3-0.7-0.5-1.4-0.8-2.3-1.1-5.2-0.1-0.4-0.1-0.9 0-0.4-0.1-0.9 0-0.5 0-0.9 0-0.5 0-0.9v-32.7h2.5v32.7q0 0.6 0 1.2 0.1 0.6 0.1 1.2 0.1 0.5 0.1 1.1 0.1 0.6 0.2 1.1 0.8 4.8 3.3 7.7 0.6 0.7 1.3 1.2 0.7 0.6 1.4 1.1 0.8 0.5 1.7 0.8 0.8 0.3 1.7 0.5 1.9 0.5 4.2 0.5 0 0 0 0 0 0 0 0 0 0 0 0 0.1 0 0.1 0 6.3 0 10.6-2.6 0.2-0.1 0.3-0.2 0.2-0.1 0.3-0.2 0.2-0.1 0.3-0.2 0.1-0.1 0.3-0.2 4.5-3.4 5.7-10v-35.7h2.6z"></path>
	<path id="O" fill-rule="evenodd" class="s0 svg-elem-4" d="m184.8 71.9v-2.2q0-1 0.1-2 0-0.9 0.1-1.9 0.1-0.9 0.3-1.9 0.2-0.9 0.4-1.9 0.2-0.7 0.4-1.3 0.2-0.7 0.4-1.4 0.2-0.7 0.5-1.4 0.3-0.6 0.6-1.3 2.8-5.8 7.9-9 1.2-0.8 2.5-1.4 1.3-0.6 2.6-1 1.4-0.4 2.8-0.6 1.4-0.2 2.8-0.2 0.1 0 0.2 0 0.1-0.1 0.2-0.1 0.1 0 0.2 0 0.1 0 0.2 0 1 0 1.9 0.1 1 0.1 2 0.3 0.9 0.1 1.9 0.4 0.9 0.2 1.8 0.5 0.5 0.2 1 0.4 0.5 0.2 1 0.5 0.5 0.2 0.9 0.4 0.5 0.3 0.9 0.6 1.2 0.7 2.2 1.6 1.1 0.8 2 1.8 0.9 1 1.7 2.1 0.8 1.1 1.5 2.3 0 0.1 0.1 0.3 0.1 0.1 0.2 0.2 0 0.2 0.1 0.3 0.1 0.2 0.1 0.3 0.6 1.1 1 2.3 0.5 1.1 0.8 2.3 0.3 1.2 0.6 2.4 0.2 1.2 0.3 2.4 0.1 0.5 0.1 0.9 0 0.5 0.1 0.9 0 0.5 0 0.9 0 0.4 0 0.9v2.2q0 7.3-2.7 13.1-0.5 1-1 1.9-0.6 0.9-1.2 1.7-0.6 0.8-1.3 1.6-0.7 0.8-1.4 1.5-0.4 0.4-0.7 0.7-0.4 0.3-0.8 0.5-0.3 0.3-0.7 0.6-0.4 0.3-0.8 0.5-1.2 0.8-2.5 1.3-1.3 0.6-2.6 1-1.4 0.5-2.8 0.7-1.4 0.2-2.8 0.2-0.1 0-0.2 0-0.1 0-0.2 0-0.1 0-0.2 0-0.1 0-0.2 0-1 0-2 0-0.9-0.1-1.9-0.3-1-0.1-1.9-0.4-1-0.2-1.9-0.6-0.5-0.2-1-0.4-0.5-0.2-0.9-0.4-0.5-0.2-1-0.5-0.5-0.3-0.9-0.5-1.2-0.8-2.3-1.7-1.1-0.9-2-2-1-1-1.8-2.2-0.8-1.1-1.5-2.4 0-0.1 0-0.1-0.1-0.1-0.1-0.2-0.1-0.1-0.1-0.2-0.1-0.1-0.1-0.2-0.5-1.1-1-2.2-0.4-1.2-0.8-2.4-0.3-1.2-0.5-2.4-0.3-1.2-0.4-2.4 0-0.4-0.1-0.9 0-0.4 0-0.8 0-0.5-0.1-0.9 0-0.5 0-0.9zm2.6-1.8v1.5q0 1.1 0 2.1 0.1 1 0.2 2 0.2 1 0.4 2 0.2 1.1 0.5 2 0.2 0.5 0.3 0.9 0.2 0.5 0.3 0.9 0.2 0.4 0.4 0.9 0.2 0.4 0.4 0.8 0.3 0.8 0.7 1.5 0.4 0.7 0.9 1.4 0.4 0.7 1 1.3 0.5 0.7 1 1.3 0.4 0.4 0.8 0.7 0.4 0.4 0.8 0.8 0.4 0.3 0.9 0.6 0.4 0.4 0.9 0.7 4.4 2.9 10.2 2.9 0.9 0 1.9-0.1 0.9-0.1 1.9-0.2 0.9-0.2 1.8-0.5 0.9-0.3 1.8-0.6 1-0.4 1.9-1 0.9-0.5 1.8-1.2 0.8-0.6 1.6-1.3 0.8-0.8 1.4-1.6 0.9-1.1 1.7-2.3 0.8-1.3 1.4-2.6 0.6-1.3 1.1-2.6 0.4-1.4 0.7-2.8 0.1-0.8 0.2-1.6 0.2-0.8 0.2-1.6 0.1-0.8 0.2-1.7 0-0.8 0-1.6v-1.4q0-6.3-2.5-11.6-0.4-0.7-0.8-1.4-0.4-0.8-0.9-1.4-0.4-0.7-0.9-1.4-0.5-0.6-1.1-1.2-0.4-0.4-0.8-0.8-0.4-0.4-0.8-0.7-0.4-0.4-0.9-0.7-0.4-0.3-0.9-0.6-1.1-0.8-2.3-1.3-1.1-0.6-2.4-1-1.3-0.4-2.6-0.5-1.3-0.2-2.6-0.2 0 0-0.1 0 0 0 0 0 0 0-0.1 0 0 0 0 0-1 0-2 0.1-0.9 0-1.9 0.2-1 0.2-1.9 0.5-1 0.3-1.9 0.7-0.9 0.5-1.8 1-0.9 0.5-1.7 1.2-0.8 0.6-1.6 1.3-0.7 0.8-1.4 1.6-1 1.2-1.8 2.6-0.8 1.3-1.5 2.7-0.6 1.5-1.1 3-0.4 1.5-0.6 3.1-0.1 0.6-0.2 1.3-0.1 0.6-0.1 1.3-0.1 0.7-0.1 1.3 0 0.7 0 1.3z"></path>
	<path id="T" fill-rule="evenodd" class="s0 svg-elem-5" d="m309.3 27.8v2.5h-24.8v65.7h-2.5v-65.7h-24.9v-2.6z"></path>
	<path id="H" fill-rule="evenodd" class="s0 svg-elem-6" d="m322.5 24v33.1q0.3-0.9 0.8-1.7 0.4-0.8 0.9-1.6 0.4-0.7 1-1.5 0.5-0.7 1.1-1.4 0.4-0.5 0.8-0.9 0.4-0.4 0.9-0.8 0.4-0.4 0.9-0.7 0.4-0.4 0.9-0.7 4.8-3.5 10.7-3.5 5.8 0 9.4 2.4 0.4 0.2 0.8 0.5 0.3 0.2 0.7 0.5 0.3 0.3 0.6 0.6 0.3 0.3 0.6 0.7 3 3.4 3.8 9.5 0 0.5 0.1 1.1 0 0.5 0.1 1.1 0 0.5 0 1.1 0 0.6 0 1.1v33.1h-2.5v-33.2q0-0.5 0-1.1 0-0.5-0.1-1 0-0.6-0.1-1.1 0-0.5-0.1-1-0.7-5-3-7.9-0.5-0.5-1-1-0.6-0.4-1.1-0.8-0.6-0.4-1.3-0.7-0.6-0.3-1.3-0.5-2.5-0.9-5.7-0.9-1.6 0-3.2 0.3-1.5 0.3-3 0.9-1.5 0.6-2.8 1.5-1.3 0.9-2.4 2-0.9 0.9-1.8 1.9-0.8 1.1-1.5 2.2-0.7 1.1-1.3 2.3-0.5 1.2-1 2.4-0.1 0.4-0.2 0.8-0.2 0.4-0.3 0.8-0.1 0.4-0.2 0.8-0.1 0.4-0.2 0.8v32.5h-2.5v-72z"></path>
	<path id="I" fill-rule="evenodd" class="s0 svg-elem-7" d="m375.7 45.3v50.7h-2.6v-50.7zm-3.8-15.9q0-1 0.7-1.8 0.2-0.2 0.4-0.3 0.2-0.2 0.4-0.3 0.3-0.1 0.5-0.1 0.2-0.1 0.5-0.1 0 0 0 0 0 0 0 0 0 0 0 0 0.1 0 0.1 0 0.2 0 0.5 0.1 0.2 0 0.4 0.1 0.3 0.1 0.5 0.2 0.2 0.2 0.4 0.4 0 0 0 0 0 0 0 0 0 0 0 0 0 0 0 0 0.1 0.1 0.2 0.2 0.1 0.1 0.2 0.3 0.1 0.1 0.1 0.2 0.1 0.2 0.2 0.3 0 0.1 0 0.2 0 0.1 0.1 0.2 0 0.1 0 0.2 0 0.1 0 0.2 0 0.3-0.1 0.5 0 0.3-0.1 0.5-0.1 0.2-0.2 0.4-0.2 0.2-0.3 0.4 0 0-0.1 0 0 0 0 0 0 0 0 0.1 0 0 0 0-0.2 0.1-0.4 0.3-0.2 0.1-0.4 0.2-0.3 0.1-0.5 0.2-0.3 0-0.5 0-0.2 0-0.3 0-0.2 0-0.3 0-0.2-0.1-0.3-0.1-0.2-0.1-0.3-0.1-0.1-0.1-0.2-0.1-0.1-0.1-0.2-0.2 0 0-0.1-0.1-0.1-0.1-0.2-0.1-0.1-0.2-0.3-0.4-0.1-0.2-0.2-0.5-0.1-0.2-0.2-0.4 0-0.3 0-0.5 0 0 0 0 0 0 0 0 0-0.1 0-0.1 0 0 0 0z"></path>
	<path id="A" fill-rule="evenodd" class="s0 svg-elem-8" d="m428 96h-2.9q-0.1-0.3-0.2-0.6-0.1-0.3-0.1-0.5-0.1-0.3-0.1-0.6-0.1-0.3-0.1-0.6-0.4-2.4-0.5-5.8 0-0.2 0-0.3 0-0.2 0-0.3 0-0.2 0-0.3 0-0.1 0-0.3-3 4.9-8.2 7.6-1 0.5-2 0.9-1.1 0.4-2.1 0.7-1.1 0.3-2.2 0.5-1.1 0.3-2.2 0.4-0.4 0-0.8 0-0.4 0.1-0.8 0.1-0.4 0-0.8 0-0.4 0-0.8 0-7.1 0-11.4-3.8-0.9-0.8-1.7-1.9-0.8-1-1.4-2.2-0.5-1.2-0.8-2.5-0.3-1.3-0.3-2.6 0-0.1 0-0.2 0-0.1 0-0.2-0.1-0.1-0.1-0.2 0 0 0-0.1 0-1.4 0.3-2.8 0.3-1.3 0.8-2.6 0.6-1.2 1.4-2.3 0.8-1.1 1.9-2 0.2-0.2 0.4-0.4 0.3-0.2 0.5-0.4 0.3-0.2 0.5-0.4 0.3-0.2 0.6-0.3 0.7-0.5 1.6-1 0.8-0.4 1.6-0.8 0.9-0.4 1.8-0.7 0.9-0.3 1.8-0.6 3-0.8 6.6-1.1 0.4 0 0.8 0 0.4-0.1 0.8-0.1 0.4 0 0.9 0 0.4 0 0.8 0h12.5v-7.4q0-0.5 0-1.1 0-0.5-0.1-1-0.1-0.5-0.1-1-0.1-0.5-0.3-1-0.2-0.9-0.5-1.7-0.3-0.8-0.8-1.5-0.4-0.7-1-1.4-0.5-0.6-1.2-1.2-0.5-0.5-1.1-0.8-0.5-0.4-1.1-0.8-0.6-0.3-1.3-0.6-0.6-0.2-1.3-0.4-1.9-0.6-4.3-0.8-0.3-0.1-0.6-0.1-0.3 0-0.6 0-0.3 0-0.6 0-0.3 0-0.5 0-0.7 0-1.4 0-0.7 0-1.4 0.1-0.6 0.1-1.3 0.2-0.7 0.1-1.3 0.3-0.9 0.2-1.7 0.5-0.8 0.3-1.6 0.6-0.8 0.4-1.5 0.9-0.7 0.4-1.4 0.9-0.4 0.3-0.8 0.7-0.4 0.3-0.7 0.7-0.4 0.3-0.7 0.7-0.3 0.4-0.6 0.8-0.5 0.6-0.8 1.3-0.4 0.8-0.6 1.5-0.2 0.8-0.4 1.6-0.1 0.8-0.1 1.6l-2.5-0.1q0-1.3 0.3-2.6 0.2-1.3 0.7-2.5 0.6-1.2 1.3-2.2 0.8-1.1 1.7-2 0.2-0.1 0.4-0.3 0.1-0.2 0.3-0.3 0.2-0.2 0.4-0.3 0.2-0.2 0.3-0.3 1.1-0.9 2.3-1.6 1.2-0.7 2.5-1.2 1.2-0.5 2.5-0.9 1.4-0.3 2.7-0.5 0.4 0 0.9 0 0.4-0.1 0.8-0.1 0.4 0 0.8 0 0.4-0.1 0.9-0.1 0.6 0 1.3 0.1 0.7 0 1.3 0.1 0.7 0 1.4 0.1 0.6 0.1 1.3 0.3 3.3 0.6 5.8 2.2 0.3 0.1 0.5 0.3 0.2 0.2 0.5 0.3 0.2 0.2 0.4 0.4 0.3 0.2 0.5 0.3 0.9 0.8 1.7 1.7 0.7 1 1.3 2 0.6 1.1 1 2.2 0.4 1.1 0.6 2.3 0.1 0.4 0.2 0.8 0 0.5 0.1 0.9 0 0.4 0 0.8 0 0.5 0.1 0.9v24.2q0 0.5 0 0.9 0 0.5 0 0.9 0 0.5 0 0.9 0 0.5 0 1 0.3 5.1 1.2 7.4 0 0 0 0.1 0 0 0 0 0 0.1 0 0.1 0.1 0 0.1 0.1zm-3.9-13.7v-12.1h-11.7q-0.8 0-1.6 0.1-0.7 0-1.5 0-0.8 0.1-1.6 0.2-0.8 0.1-1.6 0.2-6.4 0.9-10.3 3.9-0.4 0.2-0.8 0.6-0.4 0.3-0.7 0.6-0.4 0.4-0.7 0.7-0.3 0.4-0.6 0.8-0.5 0.7-0.8 1.4-0.4 0.7-0.6 1.5-0.3 0.7-0.4 1.5-0.1 0.8-0.1 1.6 0 1.1 0.2 2.1 0.2 1 0.6 2 0.4 0.9 1 1.8 0.6 0.8 1.4 1.5 0 0.1 0.1 0.2 0.1 0 0.1 0.1 0.1 0 0.2 0.1 0 0 0.1 0.1 0.7 0.6 1.5 1.1 0.8 0.5 1.6 0.9 0.9 0.4 1.8 0.7 0.9 0.2 1.8 0.3 0.4 0.1 0.7 0.1 0.3 0.1 0.6 0.1 0.4 0 0.7 0 0.3 0 0.7 0 0.7 0 1.5 0 0.7 0 1.5-0.1 0.8-0.1 1.5-0.2 0.8-0.2 1.5-0.3 0.8-0.2 1.6-0.5 0.8-0.2 1.6-0.5 0.8-0.4 1.5-0.7 0.8-0.4 1.5-0.9 5.1-3.1 7.7-8.9z"></path>
	<path id="G" fill-rule="evenodd" class="s0 svg-elem-9" d="m440.6 70.8v-0.7q0-0.9 0-1.8 0-1 0.1-1.9 0.1-0.9 0.2-1.8 0.1-1 0.2-1.9 1.2-7 4.6-11.5 1-1.5 2.3-2.6 1.3-1.2 2.9-2.1 1.5-0.9 3.2-1.4 1.7-0.5 3.4-0.6 0.3-0.1 0.6-0.1 0.2 0 0.5 0 0.3 0 0.6 0 0.2-0.1 0.5-0.1 0.8 0 1.5 0.1 0.7 0 1.5 0.1 0.7 0.1 1.5 0.3 0.7 0.1 1.4 0.3 0.6 0.2 1.1 0.4 0.5 0.2 1.1 0.4 0.5 0.2 1 0.5 0.5 0.3 1 0.5 0.9 0.6 1.7 1.2 0.9 0.7 1.6 1.4 0.8 0.7 1.4 1.5 0.7 0.8 1.3 1.7 0.1 0.3 0.3 0.5 0.1 0.2 0.2 0.4 0.2 0.3 0.3 0.5 0.1 0.2 0.3 0.5v-9.3h2.5v49.8q0 0.8 0 1.6 0 0.8-0.1 1.6-0.1 0.8-0.2 1.6-0.1 0.7-0.3 1.5-0.7 3.9-2.6 6.8-0.2 0.3-0.4 0.7-0.2 0.3-0.5 0.6-0.2 0.4-0.5 0.7-0.2 0.3-0.5 0.6-1 1.1-2.2 2-1.2 0.9-2.5 1.6-1.3 0.7-2.7 1.1-1.5 0.5-2.9 0.7-0.5 0-1 0.1-0.4 0-0.9 0.1-0.4 0-0.9 0-0.5 0-0.9 0-5.1 0-9.4-2.2-1-0.5-1.9-1.1-1-0.7-1.8-1.4-0.9-0.7-1.7-1.5-0.8-0.9-1.4-1.8-0.1 0-0.1-0.1-0.1-0.1-0.1-0.1-0.1-0.1-0.1-0.2-0.1 0-0.1-0.1l1.8-1.7q0.3 0.5 0.7 0.9 0.3 0.4 0.7 0.8 0.4 0.5 0.8 0.9 0.4 0.4 0.8 0.7 0.4 0.4 0.8 0.7 0.4 0.3 0.9 0.6 0.4 0.3 0.8 0.6 0.5 0.3 0.9 0.6 0.6 0.3 1.2 0.6 0.7 0.3 1.3 0.5 0.7 0.2 1.3 0.4 0.7 0.1 1.4 0.2 0.3 0.1 0.7 0.1 0.4 0.1 0.8 0.1 0.4 0 0.8 0 0.4 0.1 0.8 0.1 0.6 0 1.3-0.1 0.6 0 1.2-0.1 0.7-0.1 1.3-0.2 0.6-0.1 1.2-0.2 1.1-0.3 2-0.7 1-0.4 1.9-0.9 0.9-0.5 1.7-1.2 0.8-0.6 1.6-1.4 0.6-0.7 1.1-1.4 0.5-0.7 0.9-1.5 0.5-0.8 0.8-1.6 0.3-0.8 0.6-1.7 0.7-2.4 1-5.3 0-0.2 0-0.4 0-0.3 0-0.5 0-0.3 0-0.5 0.1-0.3 0.1-0.5v-7.8q-0.7 1-1.5 2-0.7 1-1.6 1.8-0.9 0.8-1.9 1.5-1 0.8-2.1 1.3-0.9 0.5-1.8 0.8-0.9 0.4-1.8 0.7-1 0.2-1.9 0.4-1 0.2-1.9 0.3-0.4 0-0.7 0.1-0.4 0-0.7 0-0.4 0-0.7 0-0.3 0-0.7 0-0.9 0-1.7 0-0.9-0.1-1.7-0.3-0.9-0.1-1.7-0.3-0.9-0.3-1.7-0.6-4-1.6-6.8-5.4-0.1 0-0.1-0.1 0 0-0.1-0.1 0 0 0-0.1-0.1 0-0.1 0-4.2-5.7-4.9-14.9-0.1-0.5-0.1-1.1-0.1-0.5-0.1-1.1 0-0.5 0-1 0-0.6 0-1.1zm36.3 12.3v-23.1q-3.8-12.1-15.2-13-0.3-0.1-0.5-0.1-0.3 0-0.5 0-0.3 0-0.5 0-0.3 0-0.5 0-7.8 0-12.1 6 0 0 0 0-0.1 0-0.1 0.1 0 0 0 0 0 0 0 0-0.5 0.7-0.8 1.3-0.4 0.7-0.8 1.4-0.3 0.7-0.6 1.5-0.3 0.7-0.5 1.4-1.6 5.2-1.6 12.5 0 0.8 0 1.7 0 0.8 0.1 1.6 0 0.9 0.1 1.7 0.1 0.8 0.2 1.6 0.5 3.5 1.7 6.4 0.2 0.5 0.4 1 0.3 0.6 0.6 1.1 0.2 0.5 0.5 1 0.3 0.5 0.7 1 4 5.8 11.1 6.2 0.1 0 0.2 0 0.1 0 0.3 0 0.1 0 0.2 0 0.1 0 0.3 0 0.6 0 1.3 0 0.6-0.1 1.3-0.1 0.7-0.1 1.3-0.2 0.7-0.1 1.3-0.3 0.8-0.1 1.5-0.4 0.7-0.2 1.5-0.5 0.7-0.3 1.4-0.7 0.6-0.3 1.3-0.8 1.1-0.7 2-1.6 1-0.8 1.8-1.9 0.8-1 1.4-2.1 0.6-1.2 1-2.4 0.1 0 0.1-0.1 0 0 0-0.1 0 0 0-0.1 0 0 0.1 0z"></path>
	<path id="O" fill-rule="evenodd" class="s0 svg-elem-10" d="m491.8 71.9v-2.2q0-1 0-2 0.1-0.9 0.2-1.9 0.1-0.9 0.2-1.9 0.2-0.9 0.4-1.9 0.2-0.7 0.4-1.3 0.2-0.7 0.4-1.4 0.3-0.7 0.6-1.4 0.2-0.6 0.6-1.3 2.7-5.8 7.8-9 1.2-0.8 2.5-1.4 1.3-0.6 2.7-1 1.3-0.4 2.7-0.6 1.4-0.2 2.8-0.2 0.1 0 0.2 0 0.1-0.1 0.2-0.1 0.1 0 0.2 0 0.1 0 0.2 0 1 0 2 0.1 1 0.1 1.9 0.3 1 0.1 1.9 0.4 1 0.2 1.9 0.5 0.5 0.2 1 0.4 0.4 0.2 0.9 0.5 0.5 0.2 1 0.4 0.4 0.3 0.9 0.6 1.1 0.7 2.2 1.6 1 0.8 2 1.8 0.9 1 1.7 2.1 0.8 1.1 1.4 2.3 0.1 0.1 0.2 0.3 0 0.1 0.1 0.2 0.1 0.2 0.1 0.3 0.1 0.2 0.2 0.3 0.5 1.1 1 2.3 0.4 1.1 0.7 2.3 0.4 1.2 0.6 2.4 0.2 1.2 0.4 2.4 0 0.5 0 0.9 0.1 0.5 0.1 0.9 0 0.5 0 0.9 0.1 0.4 0.1 0.9v2.2q0 7.3-2.8 13.1-0.5 1-1 1.9-0.5 0.9-1.1 1.7-0.7 0.8-1.3 1.6-0.7 0.8-1.5 1.5-0.4 0.4-0.7 0.7-0.4 0.3-0.7 0.5-0.4 0.3-0.8 0.6-0.4 0.3-0.8 0.5-1.2 0.8-2.4 1.3-1.3 0.6-2.7 1-1.4 0.5-2.8 0.7-1.4 0.2-2.8 0.2-0.1 0-0.2 0-0.1 0-0.2 0-0.1 0-0.2 0-0.1 0-0.2 0-0.9 0-1.9 0-1-0.1-2-0.3-0.9-0.1-1.9-0.4-0.9-0.2-1.8-0.6-0.5-0.2-1-0.4-0.5-0.2-1-0.4-0.5-0.2-1-0.5-0.4-0.3-0.9-0.5-1.2-0.8-2.3-1.7-1-0.9-2-2-1-1-1.8-2.2-0.8-1.1-1.4-2.4-0.1-0.1-0.1-0.1-0.1-0.1-0.1-0.2 0-0.1-0.1-0.2 0-0.1-0.1-0.2-0.5-1.1-0.9-2.2-0.5-1.2-0.8-2.4-0.4-1.2-0.6-2.4-0.2-1.2-0.3-2.4-0.1-0.4-0.1-0.9-0.1-0.4-0.1-0.8 0-0.5 0-0.9 0-0.5 0-0.9zm2.5-1.8v1.5q0 1.1 0.1 2.1 0 1 0.2 2 0.1 1 0.3 2 0.3 1.1 0.6 2 0.1 0.5 0.2 0.9 0.2 0.5 0.4 0.9 0.1 0.4 0.3 0.9 0.2 0.4 0.4 0.8 0.4 0.8 0.8 1.5 0.4 0.7 0.8 1.4 0.5 0.7 1 1.3 0.5 0.7 1.1 1.3 0.3 0.4 0.7 0.7 0.4 0.4 0.9 0.8 0.4 0.3 0.8 0.6 0.4 0.4 0.9 0.7 4.5 2.9 10.2 2.9 1 0 1.9-0.1 1-0.1 1.9-0.2 1-0.2 1.9-0.5 0.9-0.3 1.8-0.6 0.9-0.4 1.8-1 1-0.5 1.8-1.2 0.9-0.6 1.6-1.3 0.8-0.8 1.5-1.6 0.9-1.1 1.7-2.3 0.7-1.3 1.3-2.6 0.7-1.3 1.1-2.6 0.4-1.4 0.7-2.8 0.2-0.8 0.3-1.6 0.1-0.8 0.2-1.6 0.1-0.8 0.1-1.7 0-0.8 0-1.6v-1.4q0-6.3-2.5-11.6-0.4-0.7-0.8-1.4-0.4-0.8-0.8-1.4-0.5-0.7-1-1.4-0.5-0.6-1.1-1.2-0.3-0.4-0.7-0.8-0.4-0.4-0.9-0.7-0.4-0.4-0.8-0.7-0.5-0.3-0.9-0.6-1.1-0.8-2.3-1.3-1.2-0.6-2.5-1-1.2-0.4-2.6-0.5-1.3-0.2-2.6-0.2 0 0 0 0-0.1 0-0.1 0 0 0 0 0 0 0-0.1 0-0.9 0-1.9 0.1-1 0-2 0.2-0.9 0.2-1.9 0.5-0.9 0.3-1.8 0.7-1 0.5-1.8 1-0.9 0.5-1.8 1.2-0.8 0.6-1.5 1.3-0.8 0.8-1.4 1.6-1 1.2-1.9 2.6-0.8 1.3-1.4 2.7-0.7 1.5-1.1 3-0.5 1.5-0.7 3.1-0.1 0.6-0.2 1.3-0.1 0.6-0.1 1.3-0.1 0.7-0.1 1.3 0 0.7 0 1.3z"></path>
	<path id="ball" class="s1 svg-elem-11" d="m513.5 33c-1.9 0-3.5-1.6-3.5-3.5 0-1.9 1.6-3.5 3.5-3.5 1.9 0 3.5 1.6 3.5 3.5 0 1.9-1.6 3.5-3.5 3.5z"></path>
	<path id="trail" class="s2 svg-elem-12" d="m374 27.4c0 0 67.9-40.7 137 1"></path>
</svg>
