<svg enable-background="new 0 0 32 32" height="32" viewBox="0 0 32 32" width="32" xmlns="http://www.w3.org/2000/svg"><g id="LinkedIn"><path id="LinkedIn_3_" d="m4.983 8.375h-.043c-2.087 0-3.44-1.367-3.44-3.101 0-1.767 1.393-3.106 3.523-3.106 2.127 0 3.436 1.335 3.477 3.101 0 1.733-1.35 3.106-3.517 3.106z" fill="#fff"/><path d="m8.5 5.27c-.025-1.086-.533-2.006-1.413-2.556-.184-.022-.366-.045-.564-.045-2.13 0-3.523 1.339-3.523 3.106 0 1.072.52 2.001 1.408 2.556.174.021.347.044.532.044h.043c2.167 0 3.517-1.373 3.517-3.105z" fill="#80d8ff"/><path d="m4.983 8.875h-.043c-2.283 0-3.94-1.514-3.94-3.6 0-2.089 1.692-3.606 4.023-3.606 2.292 0 3.928 1.476 3.977 3.589 0 2.101-1.689 3.617-4.017 3.617zm.04-6.206c-1.78 0-3.023 1.072-3.023 2.606 0 1.531 1.209 2.601 2.94 2.601h.043c1.777-.001 3.017-1.072 3.017-2.606-.037-1.576-1.205-2.601-2.977-2.601z" fill="#455a64"/><path d="m2.5 10.5h5v18h-5z" fill="#fff"/><path d="m7.5 28.5h-3.5v-16.5c0-.552.447-1 1-1h2.5z" fill="#80d8ff"/><path d="m7.5 29h-5c-.276 0-.5-.224-.5-.5v-18c0-.276.224-.5.5-.5h5c.276 0 .5.224.5.5v18c0 .276-.224.5-.5.5zm-4.5-1h4v-17h-4z" fill="#455a64"/><path d="m23.5 10.5c-2.457 0-4.632 1.188-6 3.014v-3.014h-6v18h4.5 1.5v-9.5c0-1.933 1.567-3.5 3.5-3.5s3.5 1.567 3.5 3.5v9.5h6v-11c0-3.866-3.134-7-7-7z" fill="#fff"/><path d="m23.724 12.005c-1.884.069-3.586.835-4.866 2.046-.326.308-.858.1-.858-.348v-.784c-.176.19-.345.387-.5.595v-2.514h-3.5c-.553 0-1 .448-1 1v16.5h3 1.5v-9.5c0-1.933 1.567-3.5 3.5-3.5 1.077 0 2.029.498 2.672 1.264.807.641 1.328 1.625 1.328 2.736v9h5.5v-11c0-.372-.037-.734-.094-1.09-1.118-2.627-3.698-4.514-6.682-4.405z" fill="#80d8ff"/><path d="m30.5 29h-6c-.276 0-.5-.224-.5-.5v-9.5c0-1.654-1.346-3-3-3s-3 1.346-3 3v9.5c0 .276-.224.5-.5.5h-6c-.276 0-.5-.224-.5-.5v-18c0-.276.224-.5.5-.5h6c.276 0 .5.224.5.5v3.014c0 .276-.224.5-.5.5s-.5-.224-.5-.5v-2.514h-5v17h5v-9c0-2.206 1.794-4 4-4s4 1.794 4 4v9h5v-10.5c0-3.584-2.916-6.5-6.5-6.5-1.384 0-2.722.406-3.871 1.173-.229.152-.54.092-.693-.138s-.092-.54.139-.693c1.313-.878 2.843-1.342 4.425-1.342 4.136 0 7.5 3.364 7.5 7.5v11c0 .276-.224.5-.5.5z" fill="#455a64"/></g></svg>